<?xml version="1.0" encoding="UTF-8"?>
<svg version="1.1" xmlns="http://www.w3.org/2000/svg" width="60" height="63">
<path d="M0 0 C19.8 0 39.6 0 60 0 C60 20.79 60 41.58 60 63 C40.2 63 20.4 63 0 63 C0 42.21 0 21.42 0 0 Z " fill="#D7B11C" transform="translate(0,0)"/>
<path d="M0 0 C19.8 0 39.6 0 60 0 C60 20.79 60 41.58 60 63 C40.2 63 20.4 63 0 63 C0 42.21 0 21.42 0 0 Z M7.3125 12.75 C1.55839593 19.68802371 0.40733201 25.83852174 0.65625 34.8203125 C1.55588971 43.14197986 5.95720151 49.38973867 12 55 C18.44763797 59.81785808 26.01539474 61.86632245 34 61 C42.62132205 59.69759995 48.2845394 55.46776986 54 49 C59.01869407 41.33291855 59.73005144 33.95877408 59 25 C57.08101598 17.38186463 52.13281245 10.56629186 45.46484375 6.42578125 C31.70212303 -0.64813558 18.10045636 1.26532146 7.3125 12.75 Z " fill="#030000" transform="translate(0,0)"/>
<path d="M0 0 C4.9581705 3.36479075 8.86741729 6.90517975 10.59375 12.765625 C11.71976854 18.95872699 12.18276945 24.7109293 8.9375 30.3125 C5.57139659 34.97325857 1.51235779 39.1625474 -4 41 C-5.56118428 41.06740865 -7.1250252 41.08514456 -8.6875 41.0625 C-9.89986328 41.04896484 -9.89986328 41.04896484 -11.13671875 41.03515625 C-11.75160156 41.02355469 -12.36648437 41.01195312 -13 41 C-12.6875 39.0625 -12.6875 39.0625 -12 37 C-10.515 36.505 -10.515 36.505 -9 36 C-9 36.66 -9 37.32 -9 38 C-8.34 38 -7.68 38 -7 38 C-6.67 37.34 -6.34 36.68 -6 36 C-4.35 36 -2.7 36 -1 36 C-1.66 35.34 -2.32 34.68 -3 34 C-1.68 33.01 -0.36 32.02 1 31 C0.34 31 -0.32 31 -1 31 C-1 30.34 -1 29.68 -1 29 C-2.65 29.99 -4.3 30.98 -6 32 C-6 30.02 -6 28.04 -6 26 C-4.68 26 -3.36 26 -2 26 C-1.63041978 22.11940768 -1.72067963 20.41447539 -3.9375 17.125 C-6.53030485 13.1965078 -6.60714744 10.6356602 -7 6 C-8.0595877 4.71677453 -8.0595877 4.71677453 -10.5 4.875 C-12.9404123 4.71677453 -12.9404123 4.71677453 -14 6 C-14.24851516 7.45516105 -14.47324809 8.91440095 -14.6875 10.375 C-15.8276075 16.45264998 -18.53576721 23.53576721 -23 28 C-23.23192865 29.51469448 -23.41215238 31.03754562 -23.5625 32.5625 C-23.64628906 33.38878906 -23.73007812 34.21507812 -23.81640625 35.06640625 C-23.87699219 35.70449219 -23.93757813 36.34257813 -24 37 C-29.15084315 33.3371782 -31.68165425 30.24307533 -33 24 C-33.87761287 17.18495687 -33.15344786 11.58806495 -29 6 C-20.66298658 -2.82435449 -11.12281391 -6.06698941 0 0 Z " fill="#F1C40F" transform="translate(41,12)"/>
<path d="M0 0 C6.58680138 5.54225265 11.03825255 11.72413747 11.9921875 20.46484375 C12.11245156 30.23028558 10.71014922 37.48904695 3.90625 44.76171875 C-2.81166257 50.95420799 -9.93456188 53.8098087 -19.11328125 53.5859375 C-28.71985194 52.72790754 -34.99918569 48.56639938 -41.34375 41.38671875 C-46.36244407 33.7196373 -47.07380144 26.34549283 -46.34375 17.38671875 C-44.42498498 9.7694528 -39.48075466 2.99173887 -32.84375 -1.1875 C-21.73453775 -6.95701648 -10.62798063 -7.31559333 0 0 Z M-36.65625 7.69921875 C-41.01284247 13.19541035 -42.97818745 19.00239697 -42.6875 26.02734375 C-41.64472813 33.18455067 -38.69480477 39.06340963 -33.328125 43.9140625 C-28.33816977 47.61723794 -22.86370625 50.15866215 -16.51171875 49.765625 C-8.15492946 48.30506903 -1.41408446 45.33087247 3.65625 38.38671875 C7.91844488 31.79046477 8.67947217 25.10835409 7.65625 17.38671875 C5.51145481 9.92435441 0.03646174 4.56977216 -6.34375 0.44921875 C-18.03279065 -3.76519726 -28.48431878 -0.9487473 -36.65625 7.69921875 Z " fill="#EDC628" transform="translate(47.34375,7.61328125)"/>
<path d="M0 0 C6.33512941 2.74564257 11.69936044 8.72842083 14.73046875 14.83984375 C16.94603878 21.99700381 16.29526211 29.75992731 12.83984375 36.3828125 C7.98062145 43.90303749 2.18004346 47.28223793 -6.47265625 49.4140625 C-13.2912512 50.73781903 -18.89500146 48.1658075 -24.47265625 44.4140625 C-30.19149324 39.39133863 -33.68919397 33.81015896 -34.78515625 26.26171875 C-35.1769963 19.29431281 -33.13882546 12.85490557 -28.859375 7.33203125 C-20.8799087 -1.07206297 -11.22522036 -2.66000483 0 0 Z M-28.0625 11.48046875 C-31.9582528 16.82229046 -32.08352119 21.9704226 -31.47265625 28.4140625 C-30.18320432 34.95510046 -26.63058497 39.30990416 -21.47265625 43.4140625 C-17.82279248 45.85000262 -14.41227912 45.71364447 -10.09765625 45.7265625 C-8.81117187 45.74332031 -7.5246875 45.76007812 -6.19921875 45.77734375 C-0.25502447 45.19787827 3.47990675 43.01432552 7.27734375 38.4765625 C7.8496875 37.80753906 8.42203125 37.13851562 9.01171875 36.44921875 C13.12380782 30.92757338 13.08891327 26.14353724 12.52734375 19.4140625 C11.46655547 12.8763782 7.87443674 9.17883217 2.859375 5.046875 C-8.52143512 -2.92159842 -20.17632972 1.69012068 -28.0625 11.48046875 Z " fill="#4C3E07" transform="translate(39.47265625,7.5859375)"/>
<path d="M0 0 C0 3.3 0 6.6 0 10 C-0.66 10 -1.32 10 -2 10 C-1.87625 11.2375 -1.87625 11.2375 -1.75 12.5 C-2.06854278 16.95959896 -3.74412826 21.74412826 -7 25 C-7.23192865 26.51469448 -7.41215238 28.03754562 -7.5625 29.5625 C-7.64628906 30.38878906 -7.73007812 31.21507813 -7.81640625 32.06640625 C-7.87699219 32.70449219 -7.93757813 33.34257813 -8 34 C-13.15084315 30.3371782 -15.68165425 27.24307533 -17 21 C-17.92366617 13.82733306 -16.66296066 9.18124611 -13 3 C-12.2575 3.185625 -11.515 3.37125 -10.75 3.5625 C-8.05009037 3.99203108 -6.55368923 3.85122974 -4 3 C-4 2.34 -4 1.68 -4 1 C-1 0 -1 0 0 0 Z " fill="#F8C809" transform="translate(25,15)"/>
<path d="M0 0 C2.20426243 6.34065612 3.06923294 13.53364705 1 20 C-0.98 20.33 -2.96 20.66 -5 21 C-5 20.34 -5 19.68 -5 19 C-5.639375 18.71125 -6.27875 18.4225 -6.9375 18.125 C-9 17 -9 17 -10 15 C-9.26740357 13.33500811 -8.5311519 11.67144818 -7.76953125 10.01953125 C-6.51617568 6.73026814 -6.3065511 3.49468254 -6 0 C-2.25 -1.125 -2.25 -1.125 0 0 Z " fill="#F5C60B" transform="translate(33,21)"/>
<path d="M0 0 C2.15625 0.38671875 2.15625 0.38671875 4 1 C3.27683594 1.77923828 3.27683594 1.77923828 2.5390625 2.57421875 C-3.12918126 8.83242258 -5.47938273 12.89255457 -5.23828125 21.4453125 C-4.65240042 27.72672335 -2.80164986 31.59542418 1.875 35.875 C7.08661342 40.05188507 11.36829023 41.21979885 18 42 C14.19355712 44.53762859 12.52642303 44.51942559 8 44 C0.81243757 40.89186489 -4.80011707 35.31879589 -7.875 28.125 C-10.27521065 20.65129019 -9.34743851 14.35917168 -6.20703125 7.24609375 C-4.48150674 4.03516627 -2.96220944 2.14760185 0 0 Z " fill="#4B3D07" transform="translate(14,12)"/>
<path d="M0 0 C-4.15771494 1.31538327 -6.8879297 0.34433068 -11 -1 C-10.2236068 2.0745356 -10.2236068 2.0745356 -8 4 C-9.98 4.66 -11.96 5.32 -14 6 C-14.12117188 6.69867188 -14.24234375 7.39734375 -14.3671875 8.1171875 C-14.61855469 9.48230469 -14.61855469 9.48230469 -14.875 10.875 C-15.03742187 11.77992187 -15.19984375 12.68484375 -15.3671875 13.6171875 C-16 16 -16 16 -18 18 C-18 16.35 -18 14.7 -18 13 C-17.34 13 -16.68 13 -16 13 C-16.33 10.03 -16.66 7.06 -17 4 C-17.99 4 -18.98 4 -20 4 C-20 4.66 -20 5.32 -20 6 C-21.65 6.66 -23.3 7.32 -25 8 C-25.99 7.01 -26.98 6.02 -28 5 C-18.79934084 -3.43172799 -11.56716098 -4.95735471 0 0 Z " fill="#E1B817" transform="translate(41,12)"/>
<path d="M0 0 C2.5 0.25 2.5 0.25 4.5 2.25 C4.69710472 4.22104719 4.89338619 6.19218767 5.08203125 8.1640625 C5.71864329 11.34117305 7.70779646 13.5906012 9.5 16.25 C9.75 19.625 9.75 19.625 9.5 22.25 C8.18 22.58 6.86 22.91 5.5 23.25 C6.16 22.92 6.82 22.59 7.5 22.25 C7.5 21.26 7.5 20.27 7.5 19.25 C6.84 19.25 6.18 19.25 5.5 19.25 C3.63459373 14.54593201 2.13156995 10.30255964 1.5 5.25 C0.18 5.58 -1.14 5.91 -2.5 6.25 C-2.60957031 6.83007812 -2.71914063 7.41015625 -2.83203125 8.0078125 C-3.8143365 12.84746277 -5.04821911 16.90366116 -7.5 21.25 C-8.16 21.25 -8.82 21.25 -9.5 21.25 C-9.12192053 17.99851656 -8.76337639 15.66701261 -7 12.875 C-5.51625262 10.27844209 -5.22451269 8.95871901 -4.9375 6.0625 C-4.29104478 0.42910448 -4.29104478 0.42910448 0 0 Z " fill="#4D3C04" transform="translate(30.5,15.75)"/>
<path d="M0 0 C0.33 0.99 0.66 1.98 1 3 C1.66 3 2.32 3 3 3 C3 3.99 3 4.98 3 6 C2.01 6 1.02 6 0 6 C0.33 7.65 0.66 9.3 1 11 C2.32 10.34 3.64 9.68 5 9 C5 9.66 5 10.32 5 11 C5.66 11 6.32 11 7 11 C7.33 10.34 7.66 9.68 8 9 C8.33 9.99 8.66 10.98 9 12 C7.35 12.66 5.7 13.32 4 14 C4.99 15.485 4.99 15.485 6 17 C4.35 16.67 2.7 16.34 1 16 C0.67 16.66 0.34 17.32 0 18 C-1.98 17.67 -3.96 17.34 -6 17 C-6 17.66 -6 18.32 -6 19 C-8.64 18.67 -11.28 18.34 -14 18 C-13.505 16.515 -13.505 16.515 -13 15 C-12.67 15 -12.34 15 -12 15 C-11.443125 14.835 -10.88625 14.67 -10.3125 14.5 C-7.50230839 13.892391 -4.86661488 13.93484966 -2 14 C-4.97 13.505 -4.97 13.505 -8 13 C-7.67 12.34 -7.34 11.68 -7 11 C-5.35 10.67 -3.7 10.34 -2 10 C-1.34 6.7 -0.68 3.4 0 0 Z " fill="#C89F08" transform="translate(35,32)"/>
<path d="M0 0 C4.9410623 -0.37057967 9.76812563 0.29321639 14 3 C14.73046875 5.109375 14.73046875 5.109375 15 7 C14.01 7 13.02 7 12 7 C12 7.66 12 8.32 12 9 C11.34 9 10.68 9 10 9 C9.67 9.66 9.34 10.32 9 11 C6.95880212 9.38405168 4.95927063 7.7143618 3 6 C3 5.34 3 4.68 3 4 C2.01 3.67 1.02 3.34 0 3 C0 2.01 0 1.02 0 0 Z " fill="#F9C907" transform="translate(30,11)"/>
<path d="M0 0 C0 0.99 0 1.98 0 3 C-5.21777742 6.18957684 -9.32980171 6.43185884 -15.25 6.3125 C-16.47203125 6.31733398 -16.47203125 6.31733398 -17.71875 6.32226562 C-23.7324953 6.2675047 -23.7324953 6.2675047 -26 4 C-24.90300781 3.87882812 -23.80601563 3.75765625 -22.67578125 3.6328125 C-21.22131177 3.46390637 -19.76688696 3.29461519 -18.3125 3.125 C-17.59126953 3.04636719 -16.87003906 2.96773437 -16.12695312 2.88671875 C-10.52762964 2.22195888 -5.61435528 -0.3208203 0 0 Z " fill="#F0C61B" transform="translate(47,53)"/>
<path d="M0 0 C0 3 0 3 -2.4375 5.5 C-8.62405288 10.31823295 -15.34514291 11.41753766 -23 11 C-21.68 10.34 -20.36 9.68 -19 9 C-20.32 8.34 -21.64 7.68 -23 7 C-22.20335938 6.96261719 -21.40671875 6.92523438 -20.5859375 6.88671875 C-14.72331723 6.52297954 -10.07169423 6.21619634 -5 3 C-4.05125 2.443125 -3.1025 1.88625 -2.125 1.3125 C-1.42375 0.879375 -0.7225 0.44625 0 0 Z " fill="#4B3D07" transform="translate(48,46)"/>
<path d="M0 0 C0.33 0.99 0.66 1.98 1 3 C1.66 3 2.32 3 3 3 C2.79503906 3.61746094 2.59007812 4.23492188 2.37890625 4.87109375 C0.54784707 10.62710276 -0.51449864 15.97978316 -1 22 C-1.33 22 -1.66 22 -2 22 C-2 17.71 -2 13.42 -2 9 C-3.0541518 12.16245541 -3.31275672 14.86948218 -3.5625 18.1875 C-3.64628906 19.27417969 -3.73007812 20.36085938 -3.81640625 21.48046875 C-3.87699219 22.31191406 -3.93757812 23.14335938 -4 24 C-4.33 24 -4.66 24 -5 24 C-5.46469014 15.64848561 -5.18124689 9.33817225 -1 2 C-0.67 1.34 -0.34 0.68 0 0 Z " fill="#E7C336" transform="translate(6,14)"/>
<path d="M0 0 C0.33 0.66 0.66 1.32 1 2 C1.66 2 2.32 2 3 2 C2.44449305 5.59905908 1.25112752 6.99909799 -1.5625 9.25 C-2.20316406 9.77078125 -2.84382813 10.2915625 -3.50390625 10.828125 C-4.24447266 11.40820312 -4.24447266 11.40820312 -5 12 C-5 11.34 -5 10.68 -5 10 C-5.99 9.67 -6.98 9.34 -8 9 C-5.36 6.03 -2.72 3.06 0 0 Z " fill="#E5BF25" transform="translate(52,43)"/>
<path d="M0 0 C3 1 3 1 4.1796875 3.16796875 C5.10285514 6.35509512 5.19779145 9.00048884 5.125 12.3125 C5.10695313 13.38113281 5.08890625 14.44976562 5.0703125 15.55078125 C5.03550781 16.76314453 5.03550781 16.76314453 5 18 C1.93796888 15.50842947 1.42204758 13.40212875 0.8125 9.5625 C0.65394531 8.61503906 0.49539062 7.66757812 0.33203125 6.69140625 C0 4 0 4 0 0 Z " fill="#584707" transform="translate(50,19)"/>
<path d="M0 0 C1.26582219 3.86723631 1.1118765 7.73151262 1.0625 11.75 C1.05798828 12.44738281 1.05347656 13.14476562 1.04882812 13.86328125 C1.0371002 15.57555803 1.01916653 17.28779033 1 19 C0.01 18.34 -0.98 17.68 -2 17 C-2.36328125 14.1015625 -2.36328125 14.1015625 -2.3125 10.625 C-2.30863281 9.48289062 -2.30476562 8.34078125 -2.30078125 7.1640625 C-2.01895746 4.19942261 -1.54589341 2.50052879 0 0 Z " fill="#F7CA15" transform="translate(4,22)"/>
<path d="M0 0 C-0.54074373 3.78520613 -2.07572746 5.59177555 -5 8 C-5.99 8 -6.98 8 -8 8 C-7.8125 5.6875 -7.8125 5.6875 -7 3 C-2.96551724 0 -2.96551724 0 0 0 Z " fill="#ECC320" transform="translate(15,9)"/>
<path d="M0 0 C0.66 0.33 1.32 0.66 2 1 C0.97137215 6.44567686 -0.24614784 11.11817117 -3 16 C-3.66 16 -4.32 16 -5 16 C-4.48183208 11.54375588 -3.32956478 8.78554277 -1 5 C-0.29329272 2.30745009 -0.29329272 2.30745009 0 0 Z " fill="#6C5506" transform="translate(26,21)"/>
<path d="M0 0 C1.2065625 0.0309375 1.2065625 0.0309375 2.4375 0.0625 C2.7675 1.7125 3.0975 3.3625 3.4375 5.0625 C0.15053767 5.86203138 -1.27273192 6.15908936 -4.5625 5.0625 C-3.43829114 0.08386076 -3.43829114 0.08386076 0 0 Z " fill="#493D13" transform="translate(30.5625,15.9375)"/>
<path d="M0 0 C1.890625 0.23828125 1.890625 0.23828125 4 1 C8.14147147 8.09304255 7.30677698 17.1146954 7 25 C6.67 25 6.34 25 6 25 C5.96132813 23.74896484 5.96132813 23.74896484 5.921875 22.47265625 C5.54823717 15.05934194 4.4059987 9.55654749 1 3 C0.67 2.01 0.34 1.02 0 0 Z " fill="#170300" transform="translate(53,13)"/>
<path d="M0 0 C2.31 0.33 4.62 0.66 7 1 C4.38521048 3.56761548 3.05471424 3.9956345 -0.671875 4.29296875 C-2.03156035 4.27316751 -3.3910934 4.23759202 -4.75 4.1875 C-5.44738281 4.17396484 -6.14476562 4.16042969 -6.86328125 4.14648438 C-8.57585541 4.1112945 -10.28802941 4.05749155 -12 4 C-11.67 3.01 -11.34 2.02 -11 1 C-10.01 1 -9.02 1 -8 1 C-8 1.66 -8 2.32 -8 3 C-5.36 3 -2.72 3 0 3 C0 2.01 0 1.02 0 0 Z " fill="#D9B72E" transform="translate(34,3)"/>
<path d="M0 0 C3.3 0 6.6 0 10 0 C10.33 0.99 10.66 1.98 11 3 C8.24921116 3.91692961 6.64051087 4.10886083 3.8125 4.0625 C1.9253125 4.0315625 1.9253125 4.0315625 0 4 C1.32 3.34 2.64 2.68 4 2 C2.68 1.34 1.36 0.68 0 0 Z " fill="#7C660E" transform="translate(25,53)"/>
<path d="M0 0 C2.64 0 5.28 0 8 0 C8 0.33 8 0.66 8 1 C6.02 1.66 4.04 2.32 2 3 C1.87882812 3.69867187 1.75765625 4.39734375 1.6328125 5.1171875 C1.46523438 6.02726562 1.29765625 6.93734375 1.125 7.875 C0.88136719 9.23238281 0.88136719 9.23238281 0.6328125 10.6171875 C0 13 0 13 -2 15 C-2 13.35 -2 11.7 -2 10 C-1.34 10 -0.68 10 0 10 C0 6.7 0 3.4 0 0 Z " fill="#EBC21F" transform="translate(25,15)"/>
<path d="M0 0 C0 0.66 0 1.32 0 2 C0.99 2.33 1.98 2.66 3 3 C-0.465 4.485 -0.465 4.485 -4 6 C-4 5.34 -4 4.68 -4 4 C-5.32 4.33 -6.64 4.66 -8 5 C-3.16129032 0 -3.16129032 0 0 0 Z " fill="#ECC72D" transform="translate(19,5)"/>
<path d="M0 0 C0.66 0 1.32 0 2 0 C2.99 2.64 3.98 5.28 5 8 C4.01 8 3.02 8 2 8 C2 7.34 2 6.68 2 6 C0.68 5.67 -0.64 5.34 -2 5 C-1.34 3.35 -0.68 1.7 0 0 Z " fill="#FACA0A" transform="translate(21,38)"/>
<path d="M0 0 C0.59355614 2.64860427 0.74209269 5.29197322 1 8 C0.5875 7.54625 0.175 7.0925 -0.25 6.625 C-2.06408095 4.94049626 -3.75285627 4.00734029 -6 3 C-6 2.01 -6 1.02 -6 0 C-2.25 -1.125 -2.25 -1.125 0 0 Z " fill="#BEA233" transform="translate(33,21)"/>
<path d="M0 0 C0.99 0 1.98 0 3 0 C4.35439668 2.70879335 4.06501451 5.00933268 4 8 C2.68 8.33 1.36 8.66 0 9 C0.66 8.67 1.32 8.34 2 8 C2 7.01 2 6.02 2 5 C1.34 5 0.68 5 0 5 C-0.5625 3.0625 -0.5625 3.0625 -1 1 C-0.67 0.67 -0.34 0.34 0 0 Z " fill="#645110" transform="translate(36,30)"/>
<path d="M0 0 C1.65 0 3.3 0 5 0 C5.66 1.65 6.32 3.3 7 5 C6.34 5 5.68 5 5 5 C5 4.34 5 3.68 5 3 C2.525 4.485 2.525 4.485 0 6 C0 4.02 0 2.04 0 0 Z " fill="#F5C918" transform="translate(35,38)"/>
<path d="M0 0 C0.66 1.32 1.32 2.64 2 4 C4.0335948 5.26804566 4.0335948 5.26804566 6 6 C5.01 6.33 4.02 6.66 3 7 C3 7.66 3 8.32 3 9 C2.01 9 1.02 9 0 9 C0 6.03 0 3.06 0 0 Z " fill="#D8AB04" transform="translate(17,40)"/>
<path d="M0 0 C2 1 2 1 3 3 C0.6875 4.125 0.6875 4.125 -2 5 C-2.99 4.34 -3.98 3.68 -5 3 C-2.625 1.4375 -2.625 1.4375 0 0 Z " fill="#564607" transform="translate(20,8)"/>
<path d="M0 0 C0.33 1.65 0.66 3.3 1 5 C0.34 4.67 -0.32 4.34 -1 4 C-1.66 4.66 -2.32 5.32 -3 6 C-3.33 4.35 -3.66 2.7 -4 1 C-2 0 -2 0 0 0 Z " fill="#EAC430" transform="translate(57,19)"/>
</svg>
